<svg width="1024" height="1024" viewBox="0 0 300 300" fill="none" xmlns="http://www.w3.org/2000/svg">
  <rect width="300" height="300" fill="#4f46e5"/>
  <g fill="white">
    <path d="M150 50 L200 75 L150 100 L100 75 Z"/>
    <path d="M100 75 L150 100 L150 150 L100 125 Z"/>
    <path d="M200 75 L150 100 L150 150 L200 125 Z"/>
    <path d="M100 125 L150 150 L100 175 L50 150 Z"/>
    <path d="M50 150 L100 175 L100 225 L50 200 Z"/>
    <path d="M200 125 L150 150 L200 175 L250 150 Z"/>
    <path d="M250 150 L200 175 L200 225 L250 200 Z"/>
  </g>
</svg>